<svg aria-hidden="true" style="position: absolute; width: 0; height: 0; overflow: hidden;" version="1.1" xmlns="http://www.w3.org/2000/svg" xmlns:xlink="http://www.w3.org/1999/xlink">
<defs>
<symbol id="icon-bedroom" viewBox="0 0 23 32">
<path fill="#52503b" style="fill: var(--color1, #52503b)" d="M19.852 0c1.593 0 2.93 1.301 2.981 2.966v26.016c0 1.665-1.336 3.018-2.981 3.018h-16.704c-1.645 0-2.981-1.353-2.981-3.018v-26.016c0-1.665 1.336-2.966 2.93-2.966h16.756zM19.801 1.769h-16.704c-0.668 0-1.182 0.572-1.182 1.197v26.016c0 0.676 0.565 1.197 1.182 1.197h16.704c0.668 0 1.182-0.572 1.182-1.197v-26.016c0-0.676-0.565-1.197-1.182-1.197zM17.077 13.893c0.925 0 1.748 0.78 1.748 1.769s-0.771 1.769-1.748 1.769c-0.977 0-1.748-0.78-1.748-1.769s0.771-1.769 1.748-1.769z"></path>
</symbol>
<symbol id="icon-ic-1" viewBox="0 0 32 32">
<path fill="#52503b" style="fill: var(--color1, #52503b)" d="M29.455 0c1.351 0 2.494 1.093 2.545 2.446v27.057c0 1.405-1.143 2.498-2.494 2.498h-27.013c-1.403 0-2.494-1.145-2.494-2.498v-27.057c0-1.353 1.091-2.446 2.442-2.446h27.013zM29.455 1.769h-27.013c-0.364 0-0.675 0.312-0.675 0.676v27.057c0 0.364 0.312 0.676 0.675 0.676h27.013c0.364 0 0.675-0.312 0.675-0.676v-27.057c0-0.364-0.312-0.676-0.675-0.676zM19.948 26.328c0.519 0 0.935 0.416 0.935 0.937s-0.416 0.937-0.935 0.937h-0.779c-0.519 0-0.935-0.416-0.935-0.937s0.416-0.937 0.935-0.937h0.779zM24.779 26.328c0.519 0 0.935 0.416 0.935 0.937s-0.416 0.937-0.935 0.937h-0.779c-0.519 0-0.935-0.416-0.935-0.937s0.416-0.937 0.935-0.937h0.779zM9.403 16.338c2.182 0 4 1.821 4 4.006s-1.818 4.006-4 4.006c-2.182 0-4-1.821-4-4.006s1.818-4.006 4-4.006zM22.494 16.338c2.234 0 4 1.821 4 4.006s-1.818 4.006-4 4.006c-2.182 0-4-1.821-4-4.006s1.818-4.006 4-4.006zM9.403 18.159c-1.195 0-2.182 0.989-2.182 2.185s0.987 2.185 2.182 2.185c1.195 0 2.182-0.989 2.182-2.185s-0.987-2.185-2.182-2.185zM22.494 18.159c-1.195 0-2.182 0.989-2.182 2.185s0.987 2.185 2.182 2.185c1.195 0 2.182-0.989 2.182-2.185s-0.987-2.185-2.182-2.185zM9.403 4.735c2.182 0 4 1.769 4 4.006 0 2.185-1.818 4.007-4 4.007s-4-1.821-4-4.007 1.818-4.006 4-4.006zM22.494 4.735c2.234 0 4 1.769 4 4.006 0 2.185-1.818 4.007-4 4.007s-4-1.821-4-4.007c0-2.185 1.818-4.006 4-4.006zM9.403 6.556c-1.195 0-2.182 0.989-2.182 2.185s0.987 2.185 2.182 2.185c1.195 0 2.182-0.989 2.182-2.185s-0.987-2.185-2.182-2.185zM22.494 6.556c-1.195 0-2.182 0.989-2.182 2.185s0.987 2.185 2.182 2.185c1.195 0 2.182-0.989 2.182-2.185s-0.987-2.185-2.182-2.185z"></path>
</symbol>
<symbol id="icon-ic-2" viewBox="0 0 32 32">
<path fill="#52503b" style="fill: var(--color1, #52503b)" d="M29.506 8c1.351 0 2.494 1.12 2.494 2.507v10.933c0 1.44-1.143 2.56-2.494 2.56h-27.013c-1.351 0-2.442-1.12-2.494-2.453v-10.987c0-1.44 1.143-2.56 2.494-2.56h27.013zM15.117 18.88h-5.714v3.253h5.714v-3.253zM22.649 18.88h-5.714v3.253h5.714v-3.253zM7.584 18.88h-5.714v2.613c0 0.373 0.26 0.64 0.623 0.64h5.091v-3.253zM30.13 18.88h-5.714v3.253h5.091c0.364 0 0.675-0.267 0.623-0.64v-2.613zM29.506 9.867h-27.013c-0.364 0-0.623 0.267-0.623 0.64v6.56h28.312v-6.507c0-0.373-0.312-0.693-0.675-0.693zM26.442 12.427c0.519 0 0.935 0.427 0.935 0.96s-0.416 0.96-0.935 0.96h-3.325c-0.519 0-0.935-0.427-0.935-0.96s0.416-0.96 0.935-0.96h3.325z"></path>
</symbol>
<symbol id="icon-ic-3" viewBox="0 0 32 32">
<path fill="#52503b" style="fill: var(--color1, #52503b)" d="M25.878 10.796l0.173 0.009c0.397 0.044 0.744 0.238 0.972 0.549l3.018 4.011c0.312 0.406 0.364 0.965 0.104 1.421-0.156 0.254-0.364 0.457-0.625 0.609l2.29 3.808c0.26 0.457 0.26 0.965-0.052 1.421-0.208 0.457-0.676 0.711-1.197 0.711h-3.747v4.417c0 0.508-0.416 0.914-0.937 0.914s-0.937-0.406-0.937-0.914v-4.417h-3.799c-0.468 0-0.937-0.305-1.197-0.711s-0.26-0.965 0-1.371l2.29-3.858c-0.26-0.102-0.468-0.355-0.625-0.609-0.26-0.457-0.208-1.015 0.104-1.421l3.018-4.011c0.26-0.355 0.677-0.558 1.145-0.558zM8.601 3.333c0.468 0 0.885 0.203 1.145 0.558l4.892 6.397c0.312 0.406 0.364 0.965 0.104 1.421s-0.729 0.762-1.301 0.762l3.695 6.346c0.26 0.406 0.26 0.965 0 1.371-0.208 0.406-0.676 0.66-1.197 0.66h-6.349v6.854c0 0.508-0.416 0.914-0.937 0.914s-0.937-0.406-0.937-0.914v-6.854h-6.297c-0.52 0-0.989-0.305-1.249-0.762-0.26-0.406-0.208-0.965 0.052-1.371l4.059-6.244h-0.468c-0.52 0-0.989-0.305-1.249-0.762s-0.208-1.015 0.104-1.421l4.788-6.397c0.26-0.355 0.677-0.558 1.145-0.558zM25.826 12.827l-2.342 3.097c0.208 0.102 0.416 0.305 0.52 0.508 0.26 0.406 0.26 0.965 0 1.371l-2.186 3.706h8.014l-2.186-3.706c-0.26-0.406-0.26-0.965 0-1.371 0.104-0.203 0.312-0.406 0.52-0.508l-2.342-3.097zM8.601 5.415l-4.007 5.331h0.364c0.52 0 1.041 0.305 1.249 0.711s0.208 0.965-0.052 1.371l-4.007 6.244h13.010l-3.695-6.295c-0.26-0.406-0.26-0.965 0-1.371 0.26-0.355 0.677-0.66 1.145-0.66l-4.007-5.331z"></path>
</symbol>
<symbol id="icon-ic-7" viewBox="0 0 32 32">
<path fill="#52503b" style="fill: var(--color1, #52503b)" d="M20.571 10.090l0.236 0.009c1.088 0.082 1.977 0.728 2.413 1.731l6.078 14.38h1.766c0.519 0 0.935 0.358 0.935 0.87s-0.416 0.921-0.935 0.921h-30.13c-0.519 0-0.935-0.358-0.935-0.87s0.416-0.921 0.935-0.921h1.143l5.299-12.793c0.416-1.075 1.403-1.74 2.597-1.74 1.195 0.051 2.182 0.665 2.649 1.74l2.39 5.578 2.961-7.164c0.416-1.075 1.403-1.74 2.597-1.74zM20.571 11.932l-0.051 0.002c-0.197 0.012-0.648 0.101-0.884 0.612l-3.688 8.853 2.078 4.861h1.714v-1.228c-1.039-0.461-1.766-1.689-1.766-3.224 0-1.945 1.195-3.429 2.649-3.429s2.649 1.535 2.649 3.429c0 1.535-0.675 2.763-1.714 3.224v1.228h5.766l-5.818-13.714c-0.208-0.563-0.779-0.614-0.935-0.614zM9.974 13.518c-0.156 0-0.675 0.051-0.935 0.614l-5.039 12.128h12.052l-5.143-12.128c-0.208-0.563-0.779-0.614-0.935-0.614zM20.623 20.119c-0.312 0-0.831 0.614-0.831 1.637s0.468 1.638 0.831 1.638 0.831-0.614 0.831-1.638c0-1.023-0.52-1.637-0.831-1.637zM27.377 4c1.818 0 3.273 1.433 3.273 3.224s-1.506 3.224-3.273 3.224c-1.766 0-3.273-1.433-3.273-3.224s1.454-3.224 3.273-3.224zM27.377 5.842c-0.779 0-1.455 0.614-1.455 1.433s0.623 1.433 1.455 1.433c0.831 0 1.455-0.614 1.455-1.433s-0.675-1.433-1.455-1.433z"></path>
</symbol>
<symbol id="icon-bed" viewBox="0 0 23 32">
<path fill="#52503b" style="fill: var(--color1, #52503b)" d="M22.68 22.909v-0.052c0 0 0 0 0-0.052l-3.063-12.831v-7.169c0-1.558-1.225-2.805-2.757-2.805h-10.823c-1.532 0-2.757 1.247-2.757 2.805v7.169l-3.063 12.831c0 0.052-0.051 0.156-0.051 0.208v8.052c0 0.519 0.408 0.935 0.919 0.935s0.919-0.416 0.919-0.935v-1.455c0.204-0.571 3.267-1.974 9.495-1.974s9.291 1.455 9.496 1.974v1.455c0 0.519 0.408 0.935 0.919 0.935s0.919-0.416 0.919-0.935v-8c-0.102-0.052-0.153-0.104-0.153-0.156zM4.863 11.013h13.12l2.655 11.117h-18.429l2.655-11.117zM5.068 2.805c0-0.519 0.408-0.987 0.97-0.987h10.823c0.511 0 0.97 0.416 0.97 0.987v6.39h-12.763v-6.39zM11.449 25.818c-2.859 0-7.096 0.364-9.495 1.558v-3.429h18.94v3.429c-2.348-1.195-6.586-1.558-9.444-1.558z"></path>
</symbol>
<symbol id="icon-ic-4" viewBox="0 0 32 32">
<path fill="#52503b" style="fill: var(--color1, #52503b)" d="M27.948 6.804h-5.558v-1.824c0-2.032-1.662-3.647-3.636-3.647h-5.506c-2.026 0-3.636 1.667-3.636 3.647v1.824h-5.558c-2.234 0-4.052 1.824-4.052 4.064v5.106c0 0.521 0.416 0.938 0.935 0.938h0.468v9.899c0 2.136 1.714 3.856 3.844 3.856h21.506c2.13 0 3.844-1.719 3.844-3.856v-9.899h0.468c0.519 0 0.935-0.417 0.935-0.938v-5.106c0-2.24-1.818-4.064-4.052-4.064zM11.429 4.98c0-0.99 0.831-1.824 1.818-1.824h5.455c0.987 0 1.818 0.834 1.818 1.824v1.824h-9.091v-1.824zM1.87 10.868c0-1.198 0.987-2.24 2.234-2.24h23.896c1.195 0 2.234 0.99 2.234 2.24v4.22h-28.364v-4.22zM28.779 26.759c0 1.146-0.935 2.032-2.026 2.032h-21.506c-1.143 0-2.026-0.938-2.026-2.032v-9.899h6.39v3.23c0 0.521 0.416 0.938 0.935 0.938s0.935-0.417 0.935-0.938v-3.23h9.143v3.23c0 0.521 0.416 0.938 0.935 0.938s0.935-0.417 0.935-0.938v-3.23h6.39v9.899h-0.104z"></path>
</symbol>
<symbol id="icon-bathroom" viewBox="0 0 32 32">
<path fill="#52503b" style="fill: var(--color1, #52503b)" d="M31.065 14.576h-24.935v-10.13c0-0.686 0.519-1.213 1.195-1.213h4v1.53c-1.091 0.158-1.974 1.108-1.974 2.269v2.321c0 0.528 0.416 0.95 0.935 0.95h3.688c0.519 0 0.935-0.422 0.935-0.95v-2.321c0-1.055-0.727-1.952-1.714-2.216v-2.532c0-0.528-0.416-0.95-0.935-0.95h-4.935c-1.662 0-3.013 1.372-3.013 3.060v10.129h-3.377c-0.519 0-0.935 0.422-0.935 0.95s0.416 0.95 0.935 0.95h1.247v4.221c0 3.113 2.286 5.698 5.247 6.12l-1.143 2.585c-0.208 0.475 0 1.002 0.468 1.213 0.104 0.053 0.26 0.105 0.364 0.105 0.364 0 0.675-0.211 0.831-0.528l1.455-3.271h14.286c0.104 0 0.208 0 0.364 0l1.455 3.271c0.156 0.369 0.468 0.528 0.831 0.528 0.104 0 0.26 0 0.364-0.105 0.468-0.211 0.675-0.739 0.468-1.213l-1.299-2.902c2.286-0.897 3.948-3.166 3.948-5.803v-4.221h1.247c0.519 0 0.935-0.422 0.935-0.95 0-0.475-0.416-0.897-0.935-0.897zM13.039 8.456h-1.87v-1.425c0-0.264 0.208-0.475 0.467-0.475h0.935c0.26 0 0.467 0.211 0.467 0.475v1.425zM28 20.643c0 2.374-1.922 4.379-4.312 4.379h-15.377c-2.338 0-4.312-1.952-4.312-4.379v-4.221h24v4.221z"></path>
</symbol>
<symbol id="icon-ic-5" viewBox="0 0 32 32">
<path fill="#52503b" style="fill: var(--color1, #52503b)" d="M28.187 0h-18.766c-1.782 0-3.198 1.403-3.198 3.169v2.493c0 1.455 0.944 2.649 2.306 3.013v2.078c0 0.519 0.419 0.935 0.944 0.935s0.943-0.416 0.943-0.935v-1.922h10.746c0.734 0 1.363 0.623 1.363 1.351v11.636c0 0.727-0.629 1.351-1.363 1.351h-8.492c1.415-1.091 2.306-2.805 2.306-4.675 0-0.519-0.419-0.935-0.944-0.935h-10.222c-0.524 0-0.944 0.416-0.944 0.935 0 1.87 0.891 3.584 2.306 4.675h-1.31c-1.782 0-3.198 1.403-3.198 3.169v2.494c0 1.766 1.415 3.169 3.198 3.169h24.27c1.782 0 3.198-1.403 3.198-3.169v-25.662c0.052-1.714-1.415-3.169-3.145-3.169zM12.985 19.377c-0.419 1.87-2.097 3.221-4.089 3.221s-3.669-1.403-4.089-3.221h8.177zM29.55 28.831c0 0.727-0.629 1.351-1.363 1.351h-24.323c-0.734 0-1.363-0.623-1.363-1.351v-2.494c0-0.727 0.629-1.351 1.363-1.351h17.194c1.782 0 3.198-1.403 3.198-3.169v-11.636c0-1.766-1.415-3.169-3.198-3.169h-11.637c-0.734 0-1.363-0.623-1.363-1.351v-2.494c0-0.727 0.629-1.351 1.363-1.351h18.714c0.734 0 1.363 0.623 1.363 1.351v25.662h0.052z"></path>
</symbol>
<symbol id="icon-ic-6" viewBox="0 0 32 32">
<path fill="#52503b" style="fill: var(--color1, #52503b)" d="M23.322 21.316c1.862-1.971 2.82-4.616 2.661-7.313l-0.851-11.151c-0.106-1.608-1.49-2.853-3.139-2.853h-11.972c-1.649 0-3.033 1.245-3.139 2.853l-0.851 11.151c-0.213 2.697 0.745 5.342 2.66 7.313 1.649 1.763 3.938 2.852 6.385 3.060v5.757h-4.15c-0.532 0-0.958 0.415-0.958 0.934s0.426 0.933 0.958 0.933h10.163c0.532 0 0.958-0.415 0.958-0.933s-0.426-0.934-0.958-0.934h-4.15v-5.757c2.448-0.207 4.736-1.297 6.385-3.060zM10.020 1.815h11.972c0.639 0 1.224 0.519 1.277 1.141l0.372 4.668h-15.218l0.372-4.668c0-0.622 0.585-1.141 1.224-1.141zM7.945 14.107l0.319-4.616h15.484l0.319 4.616c0.16 2.23-0.585 4.305-2.128 5.964-1.543 1.608-3.671 2.541-5.959 2.541s-4.363-0.882-5.959-2.541c-1.49-1.608-2.235-3.734-2.075-5.964z"></path>
</symbol>
<symbol id="icon-ic-8" viewBox="0 0 32 32">
<path fill="#52503b" style="fill: var(--color1, #52503b)" d="M31.878 18.375c-1.145-3.64-3.748-7.592-7.236-11.077-3.436-3.484-7.392-6.032-11.036-7.176-1.301-0.416-2.759 0.26-3.227 1.56l-10.203 26.781c-0.364 0.988-0.156 2.028 0.573 2.756 0.521 0.52 1.145 0.78 1.822 0.78 0.312 0 0.625-0.052 0.937-0.156l15.669-5.98c0.052 0 0.052 0 0.104-0.052l1.874-0.728 9.11-3.484c1.354-0.468 2.030-1.924 1.614-3.224zM2.883 30.076c-0.416 0.156-0.729-0.104-0.833-0.156-0.104-0.104-0.364-0.364-0.156-0.832l2.186-5.72c0.521 1.144 1.614 1.924 2.967 1.924 1.77 0 3.228-1.456 3.228-3.224s-1.458-3.224-3.228-3.224c-0.468 0-0.937 0.104-1.353 0.312l4.060-10.713c0.677 0.416 1.353 0.832 2.030 1.352-0.833 0.572-1.353 1.56-1.353 2.6 0 1.768 1.458 3.224 3.227 3.224 1.354 0 2.499-0.832 2.967-1.976 2.499 2.34 4.945 5.148 7.028 8.58l-1.249 0.468c0-1.768-1.458-3.224-3.228-3.224s-3.227 1.456-3.227 3.224c0 0.832 0.312 1.56 0.833 2.132l-13.899 5.252zM5.59 22.067c0-0.78 0.625-1.404 1.406-1.404s1.406 0.624 1.406 1.404c0 0.78-0.625 1.404-1.406 1.404s-1.406-0.624-1.406-1.404zM15.064 12.291c0 0.052 0 0.052 0 0.104 0 0.78-0.625 1.404-1.405 1.404s-1.405-0.624-1.405-1.404c0-0.728 0.521-1.3 1.249-1.404 0.521 0.416 1.041 0.832 1.562 1.3zM18.812 24.044c-0.625-0.156-1.093-0.728-1.093-1.352 0-0.78 0.625-1.404 1.405-1.404s1.405 0.624 1.405 1.404c0 0.312-0.104 0.572-0.26 0.78l-1.458 0.572zM29.692 19.883l-4.321 1.664c-2.551-4.316-5.726-7.748-8.797-10.401-0.052 0-0.052-0.052-0.104-0.052-0.729-0.624-1.457-1.196-2.186-1.716l-0.052-0.052c-1.353-0.988-2.655-1.872-3.852-2.6l1.666-4.42c0.104-0.312 0.417-0.52 0.729-0.52 0.104 0 0.156 0 0.26 0.052 3.332 1.040 7.080 3.536 10.307 6.76s5.726 7.020 6.767 10.349c0.156 0.364-0.052 0.78-0.417 0.936z"></path>
</symbol>
</defs>
</svg>
