<svg width="18" height="18" fill="none" xmlns="http://www.w3.org/2000/svg"><path d="M17.948 6.78c-.12-.36-.42-.63-.78-.69l-5.015-.78L9.9.57A.987.987 0 0 0 9 0c-.39 0-.72.21-.87.57L5.876 5.34l-5.044.81c-.36.06-.66.33-.78.69-.12.36-.03.78.24 1.05l3.633 3.72-.841 5.19c-.06.39.09.78.42 1.02.18.12.36.18.54.18.15 0 .331-.03.451-.12L9 15.42l4.474 2.43c.33.18.72.15 1.02-.06.331-.24.481-.63.421-1.02l-.84-5.22 3.633-3.72c.27-.27.36-.69.24-1.05zm-.69.63l-3.604 3.72c-.12.12-.18.33-.15.51l.84 5.22c.03.21-.06.36-.18.42-.06.03-.21.12-.39.03L9.27 14.88a.575.575 0 0 0-.54 0l-4.504 2.46c-.18.09-.33.03-.39-.03a.467.467 0 0 1-.18-.42l.87-5.19a.615.615 0 0 0-.15-.51L.743 7.47a.46.46 0 0 1-.12-.45c.06-.15.15-.24.3-.27l5.044-.81c.18-.03.36-.15.42-.33L8.64.84C8.73.69 8.85.6 9 .6s.27.09.33.24l2.252 4.77c.09.18.24.3.42.33l5.015.78c.15.03.27.12.3.27.09.09.09.3-.06.42z" fill="#52503B"/></svg>